<svg xmlns="http://www.w3.org/2000/svg" viewBox="0 0 38 48"><defs><style>.cls-1{fill:#136bfb;}</style></defs><g id="Layer_2" data-name="Layer 2"><g id="Layer_1-2" data-name="Layer 1"><path class="cls-1" d="M38,15V5a5,5,0,0,0-5-5H5A5,5,0,0,0,0,5V43a5,5,0,0,0,5,5H33a5,5,0,0,0,5-5V19a1,1,0,0,0-2,0V43a3,3,0,0,1-3,3H5a3,3,0,0,1-3-3V5A3,3,0,0,1,5,2H33a3,3,0,0,1,3,3v9H7V7H31v4a1,1,0,0,0,2,0V6a1,1,0,0,0-1-1H6A1,1,0,0,0,5,6v9a1,1,0,0,0,1,1H37A1,1,0,0,0,38,15Z"/><path class="cls-1" d="M13,21a2,2,0,0,0-2-2H9a2,2,0,0,0-2,2v2a2,2,0,0,0,2,2h2a2,2,0,0,0,2-2Zm-2,2H9V21h2Z"/><path class="cls-1" d="M22,21a2,2,0,0,0-2-2H18a2,2,0,0,0-2,2v2a2,2,0,0,0,2,2h2a2,2,0,0,0,2-2Zm-2,2H18V21h2Z"/><path class="cls-1" d="M31,21a2,2,0,0,0-2-2H27a2,2,0,0,0-2,2v2a2,2,0,0,0,2,2h2a2,2,0,0,0,2-2Zm-2,2H27V21h2Z"/><path class="cls-1" d="M13,30a2,2,0,0,0-2-2H9a2,2,0,0,0-2,2v2a2,2,0,0,0,2,2h2a2,2,0,0,0,2-2Zm-2,2H9V30h2Z"/><path class="cls-1" d="M22,30a2,2,0,0,0-2-2H18a2,2,0,0,0-2,2v2a2,2,0,0,0,2,2h2a2,2,0,0,0,2-2Zm-2,2H18V30h2Z"/><path class="cls-1" d="M31,30a2,2,0,0,0-2-2H27a2,2,0,0,0-2,2v2a2,2,0,0,0,2,2h2a2,2,0,0,0,2-2Zm-2,2H27V30h2Z"/><path class="cls-1" d="M11,37H9a2,2,0,0,0-2,2v2a2,2,0,0,0,2,2h2a2,2,0,0,0,2-2V39A2,2,0,0,0,11,37Zm0,4H9V39h2Z"/><path class="cls-1" d="M20,37H18a2,2,0,0,0-2,2v2a2,2,0,0,0,2,2h2a2,2,0,0,0,2-2V39A2,2,0,0,0,20,37Zm0,4H18V39h2Z"/><path class="cls-1" d="M29,37H27a2,2,0,0,0-2,2v2a2,2,0,0,0,2,2h2a2,2,0,0,0,2-2V39A2,2,0,0,0,29,37Zm0,4H27V39h2Z"/></g></g></svg>