<svg xmlns="http://www.w3.org/2000/svg" viewBox="0 0 118 128.04"><defs><style>.cls-1{fill:#136bfb;}</style></defs><g id="Layer_2" data-name="Layer 2"><g id="Layer_1-2" data-name="Layer 1"><path class="cls-1" d="M42.82,64.22a1.87,1.87,0,0,0-1.63,0L30.82,70A1.71,1.71,0,0,0,30,71.3V82.76a1.74,1.74,0,0,0,.82,1.36l10.37,5.73a1.87,1.87,0,0,0,1.63,0l10.36-5.73A1.7,1.7,0,0,0,54,82.76V71.3a1.7,1.7,0,0,0-.82-1.36ZM50,81.3l-8,4.42L34,81.3V72.76l8-4.42,8,4.42Z"/><path class="cls-1" d="M116.09,39.14,91.91,25.48a4.26,4.26,0,0,0-3.81,0L63.91,39.14A4.1,4.1,0,0,0,62,42.37V69.69a4.12,4.12,0,0,0,1.91,3.23L88.09,86.58a4.32,4.32,0,0,0,3.81,0l24.19-13.66A4.12,4.12,0,0,0,118,69.69V42.37A4.1,4.1,0,0,0,116.09,39.14ZM114,69.49h0L90.07,83h-.14L66,69.53h0v-27h0L89.93,29h.13L114,42.54h0Z"/><circle class="cls-1" cx="77.15" cy="66.03" r="2"/><path class="cls-1" d="M13,39.29,9,41.56A2,2,0,0,0,8,43.3V49a2,2,0,0,0,4,0V45l.39-.79L15,42.77a2,2,0,0,0-2-3.48Z"/><path class="cls-1" d="M65.78,10.13a2,2,0,0,0-2.69-.88h0l-4,2A2,2,0,0,0,58,13v4a2,2,0,0,0,4,0V14.28l2.9-1.47A2,2,0,0,0,65.78,10.13Z"/><path class="cls-1" d="M109,88.38a3.22,3.22,0,0,1-1.27,2L81,105.16v-4.5a2.51,2.51,0,0,0-1.16-2L65.16,90.3a2.56,2.56,0,0,0-2.32,0L48.16,98.68a2.51,2.51,0,0,0-1.16,2v4.5L20.27,90.41a3.22,3.22,0,0,1-1.27-2V66.28l13.84-7.89a2.52,2.52,0,0,0,1.16-2V39.66a2.51,2.51,0,0,0-1.16-2l-4.42-2.52,21.79-12A2,2,0,0,0,51,24l12,6.82a2.14,2.14,0,0,0,1.91,0L77,24a2,2,0,0,0,.74-.85L81,24.9l4.09-2.31L78,18.68v-10a2,2,0,0,0-1-1.62L65,.25a2.14,2.14,0,0,0-2,0L51,7.08A2.05,2.05,0,0,0,50,8.7v10L24.35,32.83,18.16,29.3a2.56,2.56,0,0,0-2.32,0L1.16,37.68a2.51,2.51,0,0,0-1.16,2V56.4a2.52,2.52,0,0,0,1.16,2L15,66.28v22.1a7,7,0,0,0,3.34,5.53L47,109.73v7.67a2.52,2.52,0,0,0,1.16,2l14.69,8.37a2.63,2.63,0,0,0,2.32,0l14.68-8.37a2.52,2.52,0,0,0,1.16-2v-7.67l28.66-15.81A7,7,0,0,0,113,88.38V79.26l-4,2.26ZM54,10,64,4.31,74,10V21.1L64,26.75,54,21.1ZM4,40.66l13-7.41,13,7.41V55.4L17,62.81,4,55.4ZM77,116.4l-13,7.41L51,116.4V101.66l13-7.41,13,7.41Z"/><path class="cls-1" d="M60,100.29l-4,2.27a2,2,0,0,0-1,1.74V110a2,2,0,0,0,4,0v-4l.39-.79L62,103.77a2,2,0,1,0-2-3.48Z"/><path class="cls-1" d="M86,40.3,76,46.1a2,2,0,0,0-1,1.73V58a2,2,0,0,0,4,0V49l9-5.22a2,2,0,0,0-2-3.46Z"/></g></g></svg>