<svg xmlns="http://www.w3.org/2000/svg" viewBox="0 0 200 174.41"><defs><style>.cls-1{fill:#1e407c;}.cls-2{fill:#fff;}</style></defs><g id="Layer_2" data-name="Layer 2"><g id="Layer_1-2" data-name="Layer 1"><path class="cls-1" d="M176.73,80.76h0v0s0-.08,0-.11l.12-.31c0-.07.05-.14.07-.21l0-.15c0-.09,0-.19.05-.29l0-.23v-.16c0-.1,0-.19,0-.28a1.94,1.94,0,0,0,0-.24,1.13,1.13,0,0,0,0-.18s0-.08,0-.12a.88.88,0,0,0,0-.15c0-.07,0-.14-.05-.21s0-.12-.07-.17a2.09,2.09,0,0,0-.14-.3c0-.05,0-.1-.07-.15h0l-.1-.14a2.83,2.83,0,0,0-.2-.28l-.11-.15-.11-.1-.25-.24a.87.87,0,0,0-.1-.08.08.08,0,0,0,0,0,1,1,0,0,0-.13-.09l-.28-.17-.18-.11h0L175,76l-.3-.11a1.42,1.42,0,0,0-.22-.07l-.14,0-.29,0-.24,0h-.68l-.17,0h-.12L25.63,108.56l-.07,0a2.84,2.84,0,0,0-.38.13l-.27.1-.32.18-.27.17-.26.23a1.73,1.73,0,0,0-.24.23c-.07.07-.13.16-.2.24s-.15.2-.22.31a.43.43,0,0,0,0,.07c0,.06-.06.14-.1.21s-.11.23-.15.34-.06.22-.09.32-.06.23-.08.34,0,.23,0,.35,0,.22,0,.33a2.45,2.45,0,0,0,0,.38,1.81,1.81,0,0,0,0,.23s0,.05,0,.08a2.41,2.41,0,0,1,.08.25c0,.12.09.24.14.36l.12.23c.06.11.13.22.2.33l.16.2a2.44,2.44,0,0,0,.27.29,1.45,1.45,0,0,0,.18.17,4.1,4.1,0,0,0,.4.29l.1.07,43.23,24.75v31.15A3.48,3.48,0,0,0,70,174.1a3.53,3.53,0,0,0,1.42.31,3.48,3.48,0,0,0,2.34-.9L85,163.38a3.5,3.5,0,0,0-4.68-5.21l-5.45,4.89V143.77l52.7,30.17.15.08.07,0,.06,0a3.83,3.83,0,0,0,.65.22l.11,0a4,4,0,0,0,.69.07h.11l.36,0,.18,0,.28-.06.19-.06.26-.1.17-.08.25-.13.16-.11.22-.16a6,6,0,0,0,.35-.32c.06,0,.1-.11.15-.16l.16-.21a1.27,1.27,0,0,0,.13-.19l.08-.12a.3.3,0,0,1,0-.08c0-.05,0-.09.07-.14ZM127.8,166,78.43,137.73l87.1-49.87ZM36,113.43,151.83,87.64,71.38,133.7Z"/><ellipse class="cls-2" cx="20.76" cy="19.24" rx="3.24" ry="3.25"/><ellipse class="cls-2" cx="31.92" cy="19.24" rx="3.24" ry="3.25"/><ellipse class="cls-2" cx="43.08" cy="19.18" rx="3.24" ry="3.25"/><path class="cls-2" d="M186.55,0H13.44A13.46,13.46,0,0,0,0,13.45V150.57A13.46,13.46,0,0,0,13.44,164H57.31a3.5,3.5,0,0,0,0-7H13.44A6.45,6.45,0,0,1,7,150.57v-112H193v112a6.46,6.46,0,0,1-6.45,6.45H150.42a3.5,3.5,0,0,0,0,7h36.13A13.47,13.47,0,0,0,200,150.57V13.45A13.47,13.47,0,0,0,186.55,0ZM193,31.54H7V13.45A6.45,6.45,0,0,1,13.44,7H186.55A6.46,6.46,0,0,1,193,13.45Z"/><path class="cls-1" d="M36.45,80.76H71.38a3.49,3.49,0,0,0,3.5-3.5V49.11a3.5,3.5,0,0,0-3.5-3.5H36.45a3.5,3.5,0,0,0-3.5,3.5V77.26A3.49,3.49,0,0,0,36.45,80.76ZM40,52.61H67.88V73.76H40Z"/><path class="cls-2" d="M141.73,45.61H92.14a3.5,3.5,0,0,0,0,7h49.59a3.5,3.5,0,0,0,0-7Z"/><path class="cls-2" d="M36.45,94.84H48.89a3.5,3.5,0,1,0,0-7H36.45a3.5,3.5,0,0,0,0,7Z"/><path class="cls-2" d="M36.45,142.94a3.5,3.5,0,1,0,0,7H48.89a3.5,3.5,0,0,0,0-7Z"/><path class="cls-2" d="M163.41,52.61a3.5,3.5,0,0,0,0-7H155.8a3.5,3.5,0,0,0,0,7Z"/><path class="cls-2" d="M120.37,63.19a3.5,3.5,0,0,0,3.5,3.5h39.54a3.5,3.5,0,0,0,0-7H123.87A3.5,3.5,0,0,0,120.37,63.19Z"/><path class="cls-2" d="M92.14,66.69h17.65a3.5,3.5,0,1,0,0-7H92.14a3.5,3.5,0,1,0,0,7Z"/><path class="cls-2" d="M157.31,142.94a3.5,3.5,0,0,0,0,7h6.1a3.5,3.5,0,1,0,0-7Z"/><path class="cls-2" d="M92.14,80.76h23a3.5,3.5,0,0,0,0-7h-23a3.5,3.5,0,0,0,0,7Z"/></g></g></svg>