<svg xmlns="http://www.w3.org/2000/svg" viewBox="0 0 62 62.03"><defs><style>.cls-1{fill:#136bfb;}</style></defs><g id="Layer_2" data-name="Layer 2"><g id="Layer_1-2" data-name="Layer 1"><path class="cls-1" d="M29.1,16.3a1,1,0,1,0,1.4-1.4l-1.8-1.8a1,1,0,0,0-1.4,1.4Z"/><path class="cls-1" d="M62,60.8,60.3,50.6a1,1,0,1,0-2,.4l.4,2.4-5.3,5.3L45,57.3V53.6l3.8.5a1.14,1.14,0,0,0,.8-.3h0a1.14,1.14,0,0,0,.3-.8l-.5-3.6,3.6.5a1.14,1.14,0,0,0,.8-.3h0a1.14,1.14,0,0,0,.3-.8L53.7,45h3.7l.4,2.2A1,1,0,0,0,59,48a1,1,0,0,0,.8-1.2s-.5-3.2-.5-3.3L33.5,17.9a1,1,0,1,0-1.4,1.4L55.7,43H52.9l-32-32,1.4-1.4L24.7,12a1,1,0,0,0,1.4-1.4L18.8,3.3A10.89,10.89,0,0,0,11,0,12.06,12.06,0,0,0,3.2,3.2,11.4,11.4,0,0,0,0,11a11,11,0,0,0,3.2,7.8L43.5,59.1c.1.1,17.3,2.9,17.3,2.9.3.1.6-.1.9-.3A1.4,1.4,0,0,0,62,60.8ZM51.6,44.5l.5,3.3-3.3-.5-32.1-32,2.8-2.8ZM4.7,17.4A8.69,8.69,0,0,1,2,11,8.77,8.77,0,0,1,4.6,4.7,8.83,8.83,0,0,1,11,2a9,9,0,0,1,6.4,2.6l.7.7L5.4,18.1Zm2.1,2.1L19.5,6.8l1.4,1.4L8.2,20.9ZM28.9,36a1,1,0,0,0-1.4,1.4L43,52.9v2.8L9.6,22.3,11,20.9,24.6,34.5A1,1,0,0,0,26,33.1L12.4,19.5l2.8-2.8L47.3,48.8l.5,3.3-3.3-.5ZM55.8,59.1l3.3-3.3.7,4Z"/><path class="cls-1" d="M6.1,6.1h0A6.89,6.89,0,0,0,4.7,14a1,1,0,0,0,1.3.5.94.94,0,0,0,.5-1.3,5,5,0,0,1,1-5.7h0A1,1,0,0,0,6.1,6.1Z"/></g></g></svg>